<svg xmlns="http://www.w3.org/2000/svg" width="90" height="60" viewBox="0 0 90 60">
  <g fill="none" fill-rule="evenodd">
    <g fill-rule="nonzero">
      <path fill="#00A1E4" d="M24.1161572,59.4572052 C22.5423581,59.4572052 20.8759825,59.2026201 19.1401747,58.6471616 C17.0340611,57.9759825 14.4419214,56.541048 14.0253275,53.5786026 C13.5624454,50.2689956 16.131441,46.3576419 20.6908297,43.3720524 C22.5886463,42.1222707 24.4401747,40.9650655 26.3611354,39.7847162 C24.8799127,38.650655 23.2598253,37.4008734 21.4777293,35.8965066 C21.3157205,35.780786 19.3716157,34.2532751 17.2655022,31.8 C16.9877729,31.4759825 16.7331878,31.1519651 16.4554585,30.7816594 C16.0388646,30.8973799 15.6454148,30.9899563 15.228821,31.0825328 L14.9742358,31.1519651 C7.17467249,33.0729258 1.73580786,30.8973799 0.601746725,27.8655022 C-0.300873362,25.4816594 1.4580786,22.8432314 5.3231441,20.7834061 C7.79956332,19.4641921 10.2759825,18.4458515 12.6829694,17.6126638 C13.1921397,15.5296943 14.2567686,13.5161572 15.9,11.6183406 C19.6724891,7.26724891 25.3196507,3.63362445 31.3834061,1.64323144 C37.1925764,-0.231441048 42.2148472,-0.231441048 44.830131,1.68951965 C46.7048035,3.07816594 48.1628821,6.01746725 44.3441048,12.1969432 C43.719214,13.1921397 43.0480349,14.1873362 42.3074236,15.1362445 C44.2283843,15.4371179 46.0104803,15.8768559 47.5379913,16.4323144 C50.5235808,17.5432314 52.328821,19.0244541 52.7454148,20.760262 C53.3934498,23.3292576 51.1253275,26.1296943 46.0104803,29.0921397 C43.5340611,30.5270742 41.289083,31.8231441 39.2061135,33.0266376 C34.7161572,35.5956332 31.0131004,37.7248908 27.5183406,39.8541485 C27.6340611,39.9235808 27.7266376,40.0161572 27.8423581,40.0855895 C31.3371179,42.7240175 33.8598253,44.6449782 35.2947598,47.2139738 C36.660262,49.6209607 36.2668122,52.5371179 34.2764192,54.990393 C32.239738,57.4668122 28.5829694,59.4572052 24.1161572,59.4572052 Z M26.9165939,40.20131 C24.9262009,41.4048035 23.0052402,42.631441 21.0379913,43.9043668 C16.6868996,46.7510917 14.2567686,50.4310044 14.6733624,53.4860262 C14.9510917,55.5689956 16.571179,57.1427948 19.3253275,58.0222707 C25.6899563,60.058952 31.1751092,57.7445415 33.7672489,54.5737991 C35.6187773,52.3056769 35.9659389,49.7366812 34.7161572,47.5379913 C33.3275109,45.0847162 30.8510917,43.2100437 27.4257642,40.6179039 C27.2637555,40.4790393 27.0786026,40.3401747 26.9165939,40.20131 Z M17.1497817,30.5733624 C19.441048,33.4895197 21.8480349,35.341048 21.871179,35.3641921 L21.8943231,35.3641921 C23.7458515,36.9148472 25.4353712,38.2340611 26.9628821,39.3912664 C30.5270742,37.2157205 34.3227074,35.0401747 38.8820961,32.4248908 C40.9650655,31.2213974 43.2100437,29.9253275 45.6864629,28.490393 C50.4541485,25.7362445 52.6759825,23.0978166 52.120524,20.8991266 C51.449345,18.2375546 46.9131004,16.4323144 41.8213974,15.6917031 C36.2668122,22.519214 27.7034934,27.6803493 17.1497817,30.5733624 Z M12.5209607,18.3532751 C10.2528384,19.1401747 7.93842795,20.1353712 5.60087336,21.3620087 C2.05982533,23.2366812 0.416593886,25.5742358 1.18034934,27.6340611 C2.24497817,30.4344978 7.61441048,32.2628821 14.789083,30.5039301 L15.0436681,30.4344978 C15.3676856,30.3650655 15.6917031,30.2724891 15.9925764,30.2030568 C14.349345,27.9349345 12.7292576,24.949345 12.3820961,21.6628821 C12.3126638,20.5519651 12.3358079,19.441048 12.5209607,18.3532751 Z M13.2384279,18.1218341 C13.0069869,19.2558952 12.9606987,20.4131004 13.0764192,21.6165939 C13.4004367,24.7873362 14.9742358,27.7266376 16.7100437,30.041048 C27.1017467,27.2406114 35.549345,22.2183406 41.0576419,15.6454148 C40.0161572,15.5065502 38.9515284,15.4371179 37.8868996,15.3908297 L37.6786026,15.3908297 C32.2860262,15.1593886 23.1672489,14.8353712 13.2384279,18.1218341 Z M39.29869,0.902620087 C32.5868996,0.902620087 22.4497817,5.04541485 16.3860262,12.0580786 C14.9279476,13.7475983 13.9327511,15.5296943 13.4235808,17.3580786 C23.3061135,14.1641921 32.3323144,14.5113537 37.7017467,14.6965066 L37.9100437,14.6965066 C39.1366812,14.7427948 40.3633188,14.8353712 41.5436681,14.9973799 C42.3537118,13.9790393 43.0943231,12.9144105 43.7655022,11.8266376 C46.5659389,7.26724891 46.7973799,3.93449782 44.4135371,2.19868996 C43.2331878,1.31921397 41.4279476,0.902620087 39.29869,0.902620087 Z"/>
      <path fill="#99B94D" d="M18.6310044,50.5930131 C16.779476,50.5930131 15.020524,49.9912664 13.5393013,48.810917 L12.9606987,48.3480349 C8.42445415,44.7375546 0.856331878,38.6969432 0.0925764192,30.3882096 C-0.347161572,25.5742358 1.59694323,20.5982533 5.90174672,15.6222707 C17.2423581,2.49956332 38.0951965,-3.30960699 45.3393013,1.9209607 C47.931441,3.79563319 49.9681223,7.82270742 44.8995633,16.3628821 C40.9419214,23.0515284 32.8646288,37.0074236 30.041048,42.0991266 L29.7633188,41.9371179 L30.041048,42.0991266 C27.4720524,46.7279476 24.0467249,49.690393 20.3436681,50.4078603 C19.7650655,50.5235808 19.209607,50.5930131 18.6310044,50.5930131 Z M37.8174672,0.671179039 C34.7161572,0.671179039 31.0593886,1.31921397 27.1943231,2.56899563 C19.0475983,5.25371179 11.4563319,10.160262 6.38777293,16.0388646 C2.19868996,20.8759825 0.300873362,25.6668122 0.740611354,30.3187773 C1.48122271,38.3497817 8.93362445,44.2746725 13.3772926,47.8157205 L13.9558952,48.2786026 C15.7148472,49.690393 17.9366812,50.2227074 20.2048035,49.7598253 C23.6995633,49.0655022 26.9860262,46.2419214 29.4393013,41.7751092 C32.5174672,36.1973799 40.641048,22.1951965 44.3209607,16.0157205 C48.139738,9.58165939 48.3480349,4.88340611 44.9458515,2.430131 C43.3026201,1.24978166 40.8262009,0.671179039 37.8174672,0.671179039 Z"/>
      <path fill="#FFC10E" d="M29.3467249,43.279476 L29.1152838,43.2563319 C24.9262009,42.631441 20.9222707,41.960262 17.1960699,41.289083 C8.26244541,39.6458515 1.85152838,35.3179039 0.416593886,29.9716157 C-0.277729258,27.3331878 -0.0694323144,23.3061135 4.95283843,19.0244541 C13.8170306,11.4563319 24.1855895,11.479476 30.5270742,14.8585153 C35.1327511,17.3117904 37.5628821,21.4777293 37.0537118,26.0139738 C36.4982533,30.8973799 33.8366812,35.4799127 30.1799127,41.8213974 L29.3467249,43.279476 Z M21.3157205,13.3310044 C16.2703057,13.3310044 10.5768559,15.0899563 5.39257642,19.5104803 C1.62008734,22.7275109 0.138864629,26.2917031 1.06462882,29.7864629 C2.430131,34.8550218 8.6558952,39.0209607 17.3349345,40.6179039 C20.968559,41.289083 24.9030568,41.9371179 28.9995633,42.5620087 L29.6244541,41.4742358 C33.2580786,35.2021834 35.8733624,30.6659389 36.428821,25.9213974 C36.9148472,21.6628821 34.6235808,17.7515284 30.249345,15.4139738 C27.7960699,14.1179039 24.6947598,13.3310044 21.3157205,13.3310044 Z"/>
    </g>
    <path fill="#FFFFFF" d="M24.886 31.719C23.563 32.748 21.799 33.252 20.056 33.252 16.927 33.252 14.26 31.593 14.26 27.897L14.26 23.109C14.26 19.413 16.948 17.733 20.014 17.733 21.631 17.733 23.248 18.258 24.508 19.14 24.655 19.245 24.676 19.392 24.571 19.56L23.584 20.988C23.479 21.177 23.332 21.177 23.143 21.072 22.198 20.421 21.064 20.127 20.014 20.127 17.977 20.127 16.801 21.261 16.801 23.13L16.801 27.834C16.801 29.745 17.998 30.858 20.035 30.858 21.232 30.858 22.534 30.48 23.521 29.766 23.689 29.64 23.836 29.661 23.941 29.85L24.928 31.278C25.033 31.446 25.033 31.593 24.886 31.719zM35.995 29.01C35.995 31.614 34.105 33.252 31.207 33.252 28.309 33.252 26.419 31.614 26.419 29.01L26.419 26.196C26.419 23.55 28.309 21.87 31.207 21.87 34.105 21.87 35.995 23.55 35.995 26.196L35.995 29.01zM28.876 29.01C28.876 30.354 29.695 31.068 31.207 31.068 32.698 31.068 33.538 30.354 33.538 29.01L33.538 26.196C33.538 24.81 32.698 24.054 31.207 24.054 29.695 24.054 28.876 24.81 28.876 26.196L28.876 29.01zM40.384 33L38.578 33C38.368 33 38.263 32.895 38.263 32.685L38.263 23.067C38.263 22.899 38.326 22.773 38.494 22.689 39.712 22.164 41.182 21.87 42.673 21.87 45.571 21.87 47.545 23.214 47.545 26.574L47.545 32.685C47.545 32.895 47.44 33 47.251 33L45.424 33C45.235 33 45.109 32.895 45.109 32.685L45.109 26.616C45.109 24.642 44.206 24.054 42.673 24.054 41.959 24.054 41.182 24.159 40.699 24.285L40.699 32.685C40.699 32.895 40.594 33 40.384 33zM52.186 33L50.38 33C50.17 33 50.065 32.895 50.065 32.685L50.065 23.067C50.065 22.899 50.128 22.773 50.296 22.689 51.514 22.164 52.984 21.87 54.475 21.87 57.373 21.87 59.347 23.214 59.347 26.574L59.347 32.685C59.347 32.895 59.242 33 59.053 33L57.226 33C57.037 33 56.911 32.895 56.911 32.685L56.911 26.616C56.911 24.642 56.008 24.054 54.475 24.054 53.761 24.054 52.984 24.159 52.501 24.285L52.501 32.685C52.501 32.895 52.396 33 52.186 33zM70.708 26.175L70.708 28.296C70.708 28.485 70.603 28.59 70.393 28.59L64.009 28.59 64.009 29.178C64.009 30.459 64.891 31.11 66.235 31.11 67.537 31.11 68.419 30.669 69.196 30.144 69.343 30.039 69.511 30.06 69.616 30.207L70.477 31.362C70.603 31.509 70.582 31.677 70.414 31.803 69.301 32.685 67.936 33.252 66.151 33.252 63.778 33.252 61.552 31.95 61.552 29.157L61.552 26.175C61.552 23.088 63.862 21.87 66.172 21.87 68.461 21.87 70.708 23.088 70.708 26.175zM68.335 26.154C68.335 24.621 67.348 24.012 66.172 24.012 64.933 24.012 64.009 24.6 64.009 26.154L64.009 26.7 68.335 26.7 68.335 26.154zM80.956 32.076C79.885 32.832 78.709 33.252 77.239 33.252 74.299 33.252 72.535 31.572 72.535 29.01L72.535 26.091C72.535 23.529 74.32 21.87 77.218 21.87 78.436 21.87 79.591 22.206 80.662 22.878 80.83 22.983 80.851 23.151 80.746 23.319L79.927 24.579C79.822 24.726 79.675 24.768 79.486 24.663 78.835 24.285 78.058 24.054 77.281 24.054 75.79 24.054 74.971 24.789 74.971 26.091L74.971 29.031C74.971 30.333 75.811 31.068 77.26 31.068 78.058 31.068 78.919 30.816 79.696 30.312 79.885 30.207 80.032 30.207 80.137 30.396L81.019 31.656C81.124 31.824 81.124 31.95 80.956 32.076zM85.177 29.199C85.177 30.354 85.765 31.026 86.836 31.026 87.025 31.026 87.361 31.005 87.697 30.984 87.907 30.984 88.033 31.089 88.033 31.278L88.033 32.874C88.033 33.042 87.949 33.189 87.739 33.21 87.382 33.231 86.941 33.252 86.626 33.252 84.442 33.252 82.741 32.139 82.741 29.367L82.741 19.77C82.741 19.581 82.846 19.476 83.056 19.476L84.652 19.476C84.82 19.476 84.946 19.581 84.967 19.749L85.156 22.269 87.403 22.269C87.592 22.269 87.718 22.374 87.718 22.563L87.718 24.096C87.718 24.285 87.592 24.39 87.403 24.39L85.177 24.39 85.177 29.199zM65.93 48L59.714 48C59.616 48 59.56 47.944 59.56 47.846L59.56 47.272C59.56 47.202 59.574 47.132 59.644 47.076L62.374 44.206C63.69 42.82 64.698 41.7 64.698 40.552 64.698 39.754 64.194 38.928 62.92 38.928 61.786 38.928 61.044 39.516 60.456 40.16 60.386 40.244 60.302 40.23 60.232 40.16L59.784 39.544C59.728 39.474 59.728 39.39 59.784 39.32 60.456 38.564 61.422 37.836 62.906 37.836 64.656 37.836 65.874 38.858 65.874 40.538 65.874 41.966 64.922 43.128 63.41 44.78 62.92 45.326 62.206 46.096 61.352 46.922L65.93 46.922C66.028 46.922 66.084 46.978 66.084 47.09L66.084 47.846C66.084 47.944 66.028 48 65.93 48zM74.372 44.85C74.372 47.146 72.748 48.154 71.04 48.154 69.318 48.154 67.68 47.146 67.68 44.85L67.68 41.112C67.68 38.83 69.318 37.836 71.04 37.836 72.748 37.836 74.372 38.83 74.372 41.112L74.372 44.85zM68.842 44.892C68.842 46.446 69.906 47.034 71.04 47.034 72.16 47.034 73.21 46.446 73.21 44.892L73.21 41.154C73.21 39.544 72.174 38.956 71.04 38.956 69.892 38.956 68.842 39.544 68.842 41.154L68.842 44.892zM78.908 48L78.082 48C77.97 48 77.914 47.944 77.914 47.846L77.914 39.376 76.192 40.524C76.108 40.58 76.024 40.566 75.968 40.482L75.576 39.838C75.52 39.768 75.548 39.67 75.618 39.614L77.984 38.046C78.054 38.004 78.11 37.99 78.194 37.99L78.908 37.99C79.02 37.99 79.076 38.046 79.076 38.144L79.076 47.846C79.076 47.944 79.02 48 78.908 48zM88.092 45.13C88.092 47.02 86.678 48.154 84.592 48.154 82.492 48.154 81.078 47.02 81.078 45.13 81.078 44.108 81.624 43.128 82.716 42.722 81.806 42.316 81.344 41.518 81.344 40.51 81.344 39.026 82.632 37.836 84.592 37.836 86.524 37.836 87.826 39.026 87.826 40.51 87.826 41.518 87.364 42.316 86.454 42.722 87.546 43.128 88.092 44.108 88.092 45.13zM82.254 45.116C82.254 46.25 83.122 47.062 84.592 47.062 86.048 47.062 86.916 46.25 86.916 45.116 86.916 44.038 86.02 43.324 84.592 43.324 83.15 43.324 82.254 44.038 82.254 45.116zM82.506 40.552C82.506 41.588 83.234 42.274 84.592 42.274 85.936 42.274 86.664 41.588 86.664 40.552 86.664 39.53 85.866 38.928 84.592 38.928 83.304 38.928 82.506 39.53 82.506 40.552z"/>
  </g>
</svg>
