<svg xmlns="http://www.w3.org/2000/svg" width="108" height="100" viewBox="0 0 108 100">
  <g fill="none" fill-rule="evenodd">
    <g fill-rule="nonzero" transform="translate(0 1)">
      <path fill="#00A1E4" d="M39.5868996,97.5995633 C37.0034934,97.5995633 34.2681223,97.1816594 31.4187773,96.269869 C27.9615721,95.1681223 23.7065502,92.8126638 23.0227074,87.9497817 C22.2628821,82.5170306 26.4799127,76.0965066 33.9641921,71.1956332 C37.079476,69.1441048 40.1187773,67.2445415 43.2720524,65.3069869 C40.8406114,63.4454148 38.1812227,61.3938865 35.2558952,58.9244541 C34.9899563,58.7344978 31.79869,56.2270742 28.3414847,52.2 C27.8855895,51.6681223 27.4676856,51.1362445 27.0117904,50.5283843 C26.3279476,50.7183406 25.6820961,50.8703057 24.9982533,51.0222707 L24.5803493,51.1362445 C11.7772926,54.2895197 2.84934498,50.7183406 0.987772926,45.7414847 C-0.493886463,41.8283843 2.39344978,37.4973799 8.73799127,34.1161572 C12.8030568,31.950655 16.8681223,30.2790393 20.819214,28.9113537 C21.6550218,25.4921397 23.4026201,22.1868996 26.1,19.0716157 C32.2925764,11.9292576 41.5624454,5.96462882 51.5161572,2.69737991 C61.0519651,-0.379912664 69.2960699,-0.379912664 73.589083,2.77336245 C76.6663755,5.05283843 79.0598253,9.87772926 72.7912664,20.0213974 C71.7655022,21.6550218 70.6637555,23.2886463 69.4480349,24.8462882 C72.60131,25.3401747 75.5266376,26.0620087 78.0340611,26.9737991 C82.9349345,28.7973799 85.8982533,31.228821 86.5820961,34.0781659 C87.6458515,38.2951965 83.9227074,42.8921397 75.5266376,47.7550218 C71.4615721,50.1104803 67.7764192,52.2379913 64.3572052,54.2135371 C56.9868996,58.4305677 50.9082969,61.9257642 45.1716157,65.4209607 C45.3615721,65.5349345 45.5135371,65.6868996 45.7034934,65.8008734 C51.4401747,70.1318777 55.5812227,73.2851528 57.9366812,77.5021834 C60.1781659,81.4532751 59.5323144,86.2401747 56.2650655,90.2672489 C52.9218341,94.3323144 46.919214,97.5995633 39.5868996,97.5995633 Z M44.1838428,65.9908297 C40.9165939,67.9663755 37.7633188,69.9799127 34.5340611,72.0694323 C27.3917031,76.7423581 23.4026201,82.7829694 24.0864629,87.7978166 C24.5423581,91.2170306 27.2017467,93.8004367 31.7227074,95.2441048 C42.1703057,98.5873362 51.1742358,94.7882096 55.4292576,89.5834061 C58.468559,85.860262 59.0384279,81.6432314 56.9868996,78.0340611 C54.7074236,74.0069869 50.6423581,70.9296943 45.0196507,66.6746725 C44.7537118,66.4467249 44.4497817,66.2187773 44.1838428,65.9908297 Z M28.1515284,50.1864629 C31.9126638,54.9733624 35.8637555,58.0126638 35.9017467,58.050655 L35.939738,58.050655 C38.9790393,60.5960699 41.7524017,62.7615721 44.2598253,64.6611354 C50.1104803,61.0899563 56.341048,57.5187773 63.8253275,53.2257642 C67.2445415,51.2502183 70.9296943,49.1227074 74.9947598,46.7672489 C82.8209607,42.2462882 86.4681223,37.9152838 85.5563319,34.3061135 C84.4545852,29.9371179 77.0082969,26.9737991 68.6502183,25.7580786 C59.5323144,36.9655022 45.4755459,45.4375546 28.1515284,50.1864629 Z M20.5532751,30.1270742 C16.830131,31.4187773 13.0310044,33.0524017 9.19388646,35.0659389 C3.38122271,38.1432314 0.683842795,41.9803493 1.93755459,45.3615721 C3.68515284,49.9585153 12.4991266,52.9598253 24.2764192,50.0724891 L24.6943231,49.9585153 C25.2262009,49.8445415 25.7580786,49.6925764 26.2519651,49.5786026 C23.5545852,45.8554585 20.8951965,40.9545852 20.3253275,35.5598253 C20.2113537,33.7362445 20.249345,31.9126638 20.5532751,30.1270742 Z M21.7310044,29.7471616 C21.3510917,31.6087336 21.2751092,33.5082969 21.4650655,35.4838428 C21.9969432,40.6886463 24.5803493,45.5135371 27.4296943,49.3126638 C44.4877729,44.7157205 58.3545852,36.4716157 67.3965066,25.6820961 C65.6868996,25.4541485 63.9393013,25.3401747 62.1917031,25.2641921 L61.8497817,25.2641921 C52.9978166,24.8842795 38.0292576,24.3524017 21.7310044,29.7471616 Z M64.5091703,1.48165939 C53.4917031,1.48165939 36.8515284,8.28209607 26.8978166,19.7934498 C24.5043668,22.5668122 22.8707424,25.4921397 22.0349345,28.4934498 C38.2572052,23.250655 53.0737991,23.820524 61.8877729,24.1244541 L62.2296943,24.1244541 C64.2432314,24.2004367 66.2567686,24.3524017 68.1943231,24.6183406 C69.5240175,22.9467249 70.739738,21.1991266 71.8414847,19.4135371 C76.4384279,11.9292576 76.8183406,6.45851528 72.9052402,3.60917031 C70.9676856,2.16550218 68.0043668,1.48165939 64.5091703,1.48165939 Z"/>
      <path fill="#99B94D" d="M30.5829694,83.0489083 C27.5436681,83.0489083 24.6563319,82.0611354 22.2248908,80.1235808 L21.2751092,79.3637555 C13.828821,73.4371179 1.40567686,63.5213974 0.151965066,49.8825328 C-0.569868996,41.9803493 2.62139738,33.8122271 9.68777293,25.6441048 C28.3034934,4.10305677 62.5336245,-5.43275109 74.4248908,3.15327511 C78.6799127,6.23056769 82.0231441,12.841048 73.7030568,26.8598253 C67.2065502,37.8393013 53.9475983,60.7480349 49.3126638,69.1061135 L48.8567686,68.8401747 L49.3126638,69.1061135 C45.0956332,76.7043668 39.4729258,81.5672489 33.3943231,82.7449782 C32.4445415,82.9349345 31.5327511,83.0489083 30.5829694,83.0489083 Z M62.0777293,1.10174672 C56.9868996,1.10174672 50.9842795,2.16550218 44.639738,4.21703057 C31.2668122,8.62401747 18.8056769,16.6781659 10.4855895,26.3279476 C3.60917031,34.2681223 0.493886463,42.1323144 1.21572052,49.768559 C2.43144105,62.9515284 14.6646288,72.6772926 21.958952,78.4899563 L22.9087336,79.2497817 C25.7960699,81.5672489 29.4432314,82.441048 33.1663755,81.6812227 C38.9030568,80.5414847 44.2978166,75.9065502 48.3248908,68.5742358 C53.3777293,59.4183406 66.7126638,36.4336245 72.7532751,26.2899563 C79.0218341,15.7283843 79.3637555,8.01615721 73.7790393,3.98908297 C71.0816594,2.05152838 67.0165939,1.10174672 62.0777293,1.10174672 Z"/>
      <path fill="#FFC10E" d="M48.1729258,71.0436681 L47.7930131,71.0056769 C40.9165939,69.9799127 34.3441048,68.8781659 28.2275109,67.7764192 C13.5628821,65.0790393 3.03930131,57.9746725 0.683842795,49.19869 C-0.455895197,44.8676856 -0.113973799,38.2572052 8.130131,31.228821 C22.680786,18.8056769 39.7008734,18.8436681 50.1104803,24.390393 C57.6707424,28.4174672 61.6598253,35.2558952 60.8240175,42.7021834 C59.9122271,50.7183406 55.5432314,58.2406114 49.5406114,68.6502183 L48.1729258,71.0436681 Z M34.9899563,21.8829694 C26.7078603,21.8829694 17.3620087,24.7703057 8.85196507,32.0266376 C2.65938865,37.3074236 0.227947598,43.1580786 1.74759825,48.8947598 C3.98908297,57.2148472 14.2087336,64.0532751 28.4554585,66.6746725 C34.4200873,67.7764192 40.8786026,68.8401747 47.6030568,69.8659389 L48.628821,68.0803493 C54.5934498,57.7847162 58.8864629,50.3384279 59.7982533,42.5502183 C60.5960699,35.5598253 56.8349345,29.1393013 49.6545852,25.3021834 C45.6275109,23.1746725 40.5366812,21.8829694 34.9899563,21.8829694 Z"/>
    </g>
    <path fill="#FFFFFF" d="M32.15 52.475C30.575 53.7 28.475 54.3 26.4 54.3 22.675 54.3 19.5 52.325 19.5 47.925L19.5 42.225C19.5 37.825 22.7 35.825 26.35 35.825 28.275 35.825 30.2 36.45 31.7 37.5 31.875 37.625 31.9 37.8 31.775 38L30.6 39.7C30.475 39.925 30.3 39.925 30.075 39.8 28.95 39.025 27.6 38.675 26.35 38.675 23.925 38.675 22.525 40.025 22.525 42.25L22.525 47.85C22.525 50.125 23.95 51.45 26.375 51.45 27.8 51.45 29.35 51 30.525 50.15 30.725 50 30.9 50.025 31.025 50.25L32.2 51.95C32.325 52.15 32.325 52.325 32.15 52.475zM45.375 49.25C45.375 52.35 43.125 54.3 39.675 54.3 36.225 54.3 33.975 52.35 33.975 49.25L33.975 45.9C33.975 42.75 36.225 40.75 39.675 40.75 43.125 40.75 45.375 42.75 45.375 45.9L45.375 49.25zM36.9 49.25C36.9 50.85 37.875 51.7 39.675 51.7 41.45 51.7 42.45 50.85 42.45 49.25L42.45 45.9C42.45 44.25 41.45 43.35 39.675 43.35 37.875 43.35 36.9 44.25 36.9 45.9L36.9 49.25zM50.6 54L48.45 54C48.2 54 48.075 53.875 48.075 53.625L48.075 42.175C48.075 41.975 48.15 41.825 48.35 41.725 49.8 41.1 51.55 40.75 53.325 40.75 56.775 40.75 59.125 42.35 59.125 46.35L59.125 53.625C59.125 53.875 59 54 58.775 54L56.6 54C56.375 54 56.225 53.875 56.225 53.625L56.225 46.4C56.225 44.05 55.15 43.35 53.325 43.35 52.475 43.35 51.55 43.475 50.975 43.625L50.975 53.625C50.975 53.875 50.85 54 50.6 54zM64.65 54L62.5 54C62.25 54 62.125 53.875 62.125 53.625L62.125 42.175C62.125 41.975 62.2 41.825 62.4 41.725 63.85 41.1 65.6 40.75 67.375 40.75 70.825 40.75 73.175 42.35 73.175 46.35L73.175 53.625C73.175 53.875 73.05 54 72.825 54L70.65 54C70.425 54 70.275 53.875 70.275 53.625L70.275 46.4C70.275 44.05 69.2 43.35 67.375 43.35 66.525 43.35 65.6 43.475 65.025 43.625L65.025 53.625C65.025 53.875 64.9 54 64.65 54zM86.7 45.875L86.7 48.4C86.7 48.625 86.575 48.75 86.325 48.75L78.725 48.75 78.725 49.45C78.725 50.975 79.775 51.75 81.375 51.75 82.925 51.75 83.975 51.225 84.9 50.6 85.075 50.475 85.275 50.5 85.4 50.675L86.425 52.05C86.575 52.225 86.55 52.425 86.35 52.575 85.025 53.625 83.4 54.3 81.275 54.3 78.45 54.3 75.8 52.75 75.8 49.425L75.8 45.875C75.8 42.2 78.55 40.75 81.3 40.75 84.025 40.75 86.7 42.2 86.7 45.875zM83.875 45.85C83.875 44.025 82.7 43.3 81.3 43.3 79.825 43.3 78.725 44 78.725 45.85L78.725 46.5 83.875 46.5 83.875 45.85zM98.9 52.9C97.625 53.8 96.225 54.3 94.475 54.3 90.975 54.3 88.875 52.3 88.875 49.25L88.875 45.775C88.875 42.725 91 40.75 94.45 40.75 95.9 40.75 97.275 41.15 98.55 41.95 98.75 42.075 98.775 42.275 98.65 42.475L97.675 43.975C97.55 44.15 97.375 44.2 97.15 44.075 96.375 43.625 95.45 43.35 94.525 43.35 92.75 43.35 91.775 44.225 91.775 45.775L91.775 49.275C91.775 50.825 92.775 51.7 94.5 51.7 95.45 51.7 96.475 51.4 97.4 50.8 97.625 50.675 97.8 50.675 97.925 50.9L98.975 52.4C99.1 52.6 99.1 52.75 98.9 52.9zM103.925 49.475C103.925 50.85 104.625 51.65 105.9 51.65 106.125 51.65 106.525 51.625 106.925 51.6 107.175 51.6 107.325 51.725 107.325 51.95L107.325 53.85C107.325 54.05 107.225 54.225 106.975 54.25 106.55 54.275 106.025 54.3 105.65 54.3 103.05 54.3 101.025 52.975 101.025 49.675L101.025 38.25C101.025 38.025 101.15 37.9 101.4 37.9L103.3 37.9C103.5 37.9 103.65 38.025 103.675 38.225L103.9 41.225 106.575 41.225C106.8 41.225 106.95 41.35 106.95 41.575L106.95 43.4C106.95 43.625 106.8 43.75 106.575 43.75L103.925 43.75 103.925 49.475zM81.92 71L74.816 71C74.704 71 74.64 70.936 74.64 70.824L74.64 70.168C74.64 70.088 74.656 70.008 74.736 69.944L77.856 66.664C79.36 65.08 80.512 63.8 80.512 62.488 80.512 61.576 79.936 60.632 78.48 60.632 77.184 60.632 76.336 61.304 75.664 62.04 75.584 62.136 75.488 62.12 75.408 62.04L74.896 61.336C74.832 61.256 74.832 61.16 74.896 61.08 75.664 60.216 76.768 59.384 78.464 59.384 80.464 59.384 81.856 60.552 81.856 62.472 81.856 64.104 80.768 65.432 79.04 67.32 78.48 67.944 77.664 68.824 76.688 69.768L81.92 69.768C82.032 69.768 82.096 69.832 82.096 69.96L82.096 70.824C82.096 70.936 82.032 71 81.92 71zM91.568 67.4C91.568 70.024 89.712 71.176 87.76 71.176 85.792 71.176 83.92 70.024 83.92 67.4L83.92 63.128C83.92 60.52 85.792 59.384 87.76 59.384 89.712 59.384 91.568 60.52 91.568 63.128L91.568 67.4zM85.248 67.448C85.248 69.224 86.464 69.896 87.76 69.896 89.04 69.896 90.24 69.224 90.24 67.448L90.24 63.176C90.24 61.336 89.056 60.664 87.76 60.664 86.448 60.664 85.248 61.336 85.248 63.176L85.248 67.448zM96.752 71L95.808 71C95.68 71 95.616 70.936 95.616 70.824L95.616 61.144 93.648 62.456C93.552 62.52 93.456 62.504 93.392 62.408L92.944 61.672C92.88 61.592 92.912 61.48 92.992 61.416L95.696 59.624C95.776 59.576 95.84 59.56 95.936 59.56L96.752 59.56C96.88 59.56 96.944 59.624 96.944 59.736L96.944 70.824C96.944 70.936 96.88 71 96.752 71zM107.248 67.72C107.248 69.88 105.632 71.176 103.248 71.176 100.848 71.176 99.232 69.88 99.232 67.72 99.232 66.552 99.856 65.432 101.104 64.968 100.064 64.504 99.536 63.592 99.536 62.44 99.536 60.744 101.008 59.384 103.248 59.384 105.456 59.384 106.944 60.744 106.944 62.44 106.944 63.592 106.416 64.504 105.376 64.968 106.624 65.432 107.248 66.552 107.248 67.72zM100.576 67.704C100.576 69 101.568 69.928 103.248 69.928 104.912 69.928 105.904 69 105.904 67.704 105.904 66.472 104.88 65.656 103.248 65.656 101.6 65.656 100.576 66.472 100.576 67.704zM100.864 62.488C100.864 63.672 101.696 64.456 103.248 64.456 104.784 64.456 105.616 63.672 105.616 62.488 105.616 61.32 104.704 60.632 103.248 60.632 101.776 60.632 100.864 61.32 100.864 62.488z"/>
  </g>
</svg>
