<svg xmlns="http://www.w3.org/2000/svg" width="85" height="50" viewBox="0 0 85 50">
  <g fill="none" fill-rule="evenodd">
    <g fill-rule="nonzero">
      <path fill="#00A1E4" d="M19.8669261,48.9809339 C18.570428,48.9809339 17.1976654,48.7712062 15.7677043,48.3136187 C14.0326848,47.7607004 11.8972763,46.5785992 11.5540856,44.1381323 C11.1727626,41.4116732 13.2891051,38.1894942 17.0451362,35.7299611 C18.6085603,34.7003891 20.1338521,33.7470817 21.7163424,32.7747082 C20.4961089,31.8404669 19.1614786,30.8108949 17.6933852,29.5715953 C17.5599222,29.4762646 15.9583658,28.2178988 14.2233463,26.1968872 C13.9945525,25.9299611 13.7848249,25.663035 13.5560311,25.3579767 C13.2128405,25.4533074 12.888716,25.529572 12.5455253,25.6058366 L12.3357977,25.663035 C5.91050584,27.2455253 1.42996109,25.4533074 0.495719844,22.955642 C-0.247859922,20.9918288 1.20116732,18.8182879 4.38521401,17.1214008 C6.42529183,16.0346304 8.46536965,15.1957198 10.448249,14.5093385 C10.8677043,12.7933852 11.7447471,11.1346304 13.0984436,9.57120623 C16.2062257,5.98677043 20.8583658,2.99338521 25.8536965,1.3536965 C30.6392996,-0.190661479 34.7766537,-0.190661479 36.9311284,1.39182879 C38.4754864,2.53579767 39.6766537,4.95719844 36.5307393,10.0478599 C36.0159533,10.8677043 35.463035,11.6875486 34.8529183,12.4692607 C36.4354086,12.7171206 37.9035019,13.0793774 39.1618677,13.536965 C41.6214008,14.4521401 43.1085603,15.6723735 43.451751,17.1023346 C43.9856031,19.218677 42.1171206,21.5256809 37.9035019,23.9661479 C35.8634241,25.148249 34.0140078,26.2159533 32.2980545,27.207393 C28.5992218,29.3237354 25.5486381,31.077821 22.6696498,32.8319066 C22.7649805,32.8891051 22.8412451,32.9653696 22.9365759,33.0225681 C25.8155642,35.1961089 27.8937743,36.7785992 29.0758755,38.8949416 C30.2007782,40.877821 29.8766537,43.2801556 28.236965,45.3011673 C26.559144,47.3412451 23.5466926,48.9809339 19.8669261,48.9809339 Z M22.17393,33.1178988 C20.5342412,34.1093385 18.951751,35.1198444 17.3311284,36.1684825 C13.7466926,38.5136187 11.7447471,41.5451362 12.0879377,44.0618677 C12.3167315,45.777821 13.6513619,47.0743191 15.9202335,47.7988327 C21.1634241,49.4766537 25.6821012,47.5700389 27.8175097,44.9579767 C29.3428016,43.0894942 29.6287938,40.9731518 28.5992218,39.1618677 C27.4552529,37.140856 25.4151751,35.5964981 22.5933852,33.4610895 C22.4599222,33.3466926 22.307393,33.2322957 22.17393,33.1178988 Z M14.1280156,25.1863813 C16.0155642,27.588716 17.9984436,29.1140078 18.0175097,29.1330739 L18.0365759,29.1330739 C19.5618677,30.4105058 20.9536965,31.4972763 22.2120623,32.4505837 C25.148249,30.6583658 28.2750973,28.8661479 32.0311284,26.7116732 C33.7470817,25.7202335 35.5964981,24.6525292 37.6365759,23.470428 C41.5642023,21.2015564 43.3945525,19.0280156 42.936965,17.2167315 C42.3840467,15.0241245 38.6470817,13.536965 34.4525292,12.9268482 C29.8766537,18.5513619 22.822179,22.8031128 14.1280156,25.1863813 Z M10.314786,15.1194553 C8.4463035,15.7677043 6.53968872,16.5875486 4.61400778,17.5980545 C1.69688716,19.1424125 0.343190661,21.0680934 0.972373541,22.7649805 C1.84941634,25.0719844 6.27276265,26.5782101 12.1832685,25.1291829 L12.3929961,25.0719844 C12.6599222,25.014786 12.9268482,24.9385214 13.1747082,24.881323 C11.8210117,23.0128405 10.4863813,20.5533074 10.2003891,17.8459144 C10.1431907,16.9307393 10.1622568,16.0155642 10.314786,15.1194553 Z M10.9058366,14.9287938 C10.7151751,15.863035 10.6770428,16.8163424 10.7723735,17.8077821 C11.0392996,20.4198444 12.3357977,22.8412451 13.7657588,24.7478599 C22.3264591,22.440856 29.2856031,18.3035019 33.8233463,12.888716 C32.9653696,12.7743191 32.0883268,12.7171206 31.211284,12.6789883 L31.0396887,12.6789883 C26.5972763,12.4883268 19.085214,12.2214008 10.9058366,14.9287938 Z M32.3743191,0.743579767 C26.8451362,0.743579767 18.4941634,4.15642023 13.4988327,9.93346304 C12.2976654,11.3252918 11.477821,12.7933852 11.0583658,14.2996109 C19.1996109,11.6684825 26.6354086,11.9544747 31.0587549,12.1070039 L31.2303502,12.1070039 C32.240856,12.1451362 33.2513619,12.2214008 34.2237354,12.3548638 C34.8910506,11.5159533 35.5011673,10.6389105 36.0540856,9.74280156 C38.3610895,5.98677043 38.551751,3.24124514 36.5879377,1.81128405 C35.6155642,1.08677043 34.1284047,0.743579767 32.3743191,0.743579767 Z"/>
      <path fill="#99B94D" d="M15.348249,41.6785992 C13.8229572,41.6785992 12.37393,41.1828794 11.1536965,40.2105058 L10.6770428,39.8291829 C6.94007782,36.8548638 0.705447471,31.8785992 0.0762645914,25.0338521 C-0.285992218,21.0680934 1.3155642,16.9688716 4.8618677,12.8696498 C14.2042802,2.05914397 31.3828794,-2.72645914 37.3505837,1.58249027 C39.4859922,3.12684825 41.1638132,6.44435798 36.9883268,13.4797665 C33.7280156,18.9898833 27.07393,30.4867704 24.7478599,34.681323 L24.5190661,34.5478599 L24.7478599,34.681323 C22.6315175,38.4945525 19.8097276,40.9350195 16.759144,41.52607 C16.2824903,41.6214008 15.8249027,41.6785992 15.348249,41.6785992 Z M31.1540856,0.552918288 C28.5992218,0.552918288 25.5867704,1.08677043 22.4027237,2.11634241 C15.6914397,4.32801556 9.43774319,8.37003891 5.26225681,13.2128405 C1.81128405,17.1976654 0.247859922,21.144358 0.610116732,24.9766537 C1.22023346,31.592607 7.35953307,36.4735409 11.0202335,39.3906615 L11.4968872,39.7719844 C12.9459144,40.9350195 14.7762646,41.3735409 16.6447471,40.9922179 C19.5237354,40.4202335 22.2311284,38.0941634 24.2521401,34.4143969 C26.7879377,29.8194553 33.4801556,18.2844358 36.5116732,13.1937743 C39.6575875,7.89338521 39.8291829,4.0229572 37.0264591,2.00194553 C35.6727626,1.02957198 33.6326848,0.552918288 31.1540856,0.552918288 Z"/>
      <path fill="#FFC10E" d="M24.1758755,35.6536965 L23.985214,35.6346304 C20.5342412,35.1198444 17.2357977,34.5669261 14.1661479,34.0140078 C6.80661479,32.6603113 1.52529183,29.0949416 0.343190661,24.6906615 C-0.228793774,22.5171206 -0.0571984436,19.1996109 4.08015564,15.6723735 C11.3824903,9.43774319 19.9241245,9.45680934 25.148249,12.2404669 C28.9424125,14.2614786 30.944358,17.6933852 30.5249027,21.4303502 C30.0673152,25.4533074 27.8747082,29.2284047 24.8622568,34.4525292 L24.1758755,35.6536965 Z M17.5599222,10.9821012 C13.4035019,10.9821012 8.71322957,12.4311284 4.44241245,16.0727626 C1.33463035,18.7229572 0.114396887,21.659144 0.877042802,24.5381323 C2.00194553,28.7136187 7.1307393,32.1455253 14.2805447,33.4610895 C17.27393,34.0140078 20.5151751,34.5478599 23.8898833,35.0626459 L24.4046693,34.166537 C27.3980545,28.9996109 29.5525292,25.2626459 30.0101167,21.3540856 C30.4105058,17.8459144 28.5229572,14.6237354 24.9194553,12.6980545 C22.8984436,11.6303502 20.3435798,10.9821012 17.5599222,10.9821012 Z"/>
    </g>
    <path fill="#FFFFFF" d="M21.32 24.78C20.06 25.76 18.38 26.24 16.72 26.24 13.74 26.24 11.2 24.66 11.2 21.14L11.2 16.58C11.2 13.06 13.76 11.46 16.68 11.46 18.22 11.46 19.76 11.96 20.96 12.8 21.1 12.9 21.12 13.04 21.02 13.2L20.08 14.56C19.98 14.74 19.84 14.74 19.66 14.64 18.76 14.02 17.68 13.74 16.68 13.74 14.74 13.74 13.62 14.82 13.62 16.6L13.62 21.08C13.62 22.9 14.76 23.96 16.7 23.96 17.84 23.96 19.08 23.6 20.02 22.92 20.18 22.8 20.32 22.82 20.42 23L21.36 24.36C21.46 24.52 21.46 24.66 21.32 24.78zM31.9 22.2C31.9 24.68 30.1 26.24 27.34 26.24 24.58 26.24 22.78 24.68 22.78 22.2L22.78 19.52C22.78 17 24.58 15.4 27.34 15.4 30.1 15.4 31.9 17 31.9 19.52L31.9 22.2zM25.12 22.2C25.12 23.48 25.9 24.16 27.34 24.16 28.76 24.16 29.56 23.48 29.56 22.2L29.56 19.52C29.56 18.2 28.76 17.48 27.34 17.48 25.9 17.48 25.12 18.2 25.12 19.52L25.12 22.2zM36.08 26L34.36 26C34.16 26 34.06 25.9 34.06 25.7L34.06 16.54C34.06 16.38 34.12 16.26 34.28 16.18 35.44 15.68 36.84 15.4 38.26 15.4 41.02 15.4 42.9 16.68 42.9 19.88L42.9 25.7C42.9 25.9 42.8 26 42.62 26L40.88 26C40.7 26 40.58 25.9 40.58 25.7L40.58 19.92C40.58 18.04 39.72 17.48 38.26 17.48 37.58 17.48 36.84 17.58 36.38 17.7L36.38 25.7C36.38 25.9 36.28 26 36.08 26zM47.32 26L45.6 26C45.4 26 45.3 25.9 45.3 25.7L45.3 16.54C45.3 16.38 45.36 16.26 45.52 16.18 46.68 15.68 48.08 15.4 49.5 15.4 52.26 15.4 54.14 16.68 54.14 19.88L54.14 25.7C54.14 25.9 54.04 26 53.86 26L52.12 26C51.94 26 51.82 25.9 51.82 25.7L51.82 19.92C51.82 18.04 50.96 17.48 49.5 17.48 48.82 17.48 48.08 17.58 47.62 17.7L47.62 25.7C47.62 25.9 47.52 26 47.32 26zM64.96 19.5L64.96 21.52C64.96 21.7 64.86 21.8 64.66 21.8L58.58 21.8 58.58 22.36C58.58 23.58 59.42 24.2 60.7 24.2 61.94 24.2 62.78 23.78 63.52 23.28 63.66 23.18 63.82 23.2 63.92 23.34L64.74 24.44C64.86 24.58 64.84 24.74 64.68 24.86 63.62 25.7 62.32 26.24 60.62 26.24 58.36 26.24 56.24 25 56.24 22.34L56.24 19.5C56.24 16.56 58.44 15.4 60.64 15.4 62.82 15.4 64.96 16.56 64.96 19.5zM62.7 19.48C62.7 18.02 61.76 17.44 60.64 17.44 59.46 17.44 58.58 18 58.58 19.48L58.58 20 62.7 20 62.7 19.48zM74.72 25.12C73.7 25.84 72.58 26.24 71.18 26.24 68.38 26.24 66.7 24.64 66.7 22.2L66.7 19.42C66.7 16.98 68.4 15.4 71.16 15.4 72.32 15.4 73.42 15.72 74.44 16.36 74.6 16.46 74.62 16.62 74.52 16.78L73.74 17.98C73.64 18.12 73.5 18.16 73.32 18.06 72.7 17.7 71.96 17.48 71.22 17.48 69.8 17.48 69.02 18.18 69.02 19.42L69.02 22.22C69.02 23.46 69.82 24.16 71.2 24.16 71.96 24.16 72.78 23.92 73.52 23.44 73.7 23.34 73.84 23.34 73.94 23.52L74.78 24.72C74.88 24.88 74.88 25 74.72 25.12zM78.74 22.38C78.74 23.48 79.3 24.12 80.32 24.12 80.5 24.12 80.82 24.1 81.14 24.08 81.34 24.08 81.46 24.18 81.46 24.36L81.46 25.88C81.46 26.04 81.38 26.18 81.18 26.2 80.84 26.22 80.42 26.24 80.12 26.24 78.04 26.24 76.42 25.18 76.42 22.54L76.42 13.4C76.42 13.22 76.52 13.12 76.72 13.12L78.24 13.12C78.4 13.12 78.52 13.22 78.54 13.38L78.72 15.78 80.86 15.78C81.04 15.78 81.16 15.88 81.16 16.06L81.16 17.52C81.16 17.7 81.04 17.8 80.86 17.8L78.74 17.8 78.74 22.38zM60.435 39L54.663 39C54.572 39 54.52 38.948 54.52 38.857L54.52 38.324C54.52 38.259 54.533 38.194 54.598 38.142L57.133 35.477C58.355 34.19 59.291 33.15 59.291 32.084 59.291 31.343 58.823 30.576 57.64 30.576 56.587 30.576 55.898 31.122 55.352 31.72 55.287 31.798 55.209 31.785 55.144 31.72L54.728 31.148C54.676 31.083 54.676 31.005 54.728 30.94 55.352 30.238 56.249 29.562 57.627 29.562 59.252 29.562 60.383 30.511 60.383 32.071 60.383 33.397 59.499 34.476 58.095 36.01 57.64 36.517 56.977 37.232 56.184 37.999L60.435 37.999C60.526 37.999 60.578 38.051 60.578 38.155L60.578 38.857C60.578 38.948 60.526 39 60.435 39zM68.274 36.075C68.274 38.207 66.766 39.143 65.18 39.143 63.581 39.143 62.06 38.207 62.06 36.075L62.06 32.604C62.06 30.485 63.581 29.562 65.18 29.562 66.766 29.562 68.274 30.485 68.274 32.604L68.274 36.075zM63.139 36.114C63.139 37.557 64.127 38.103 65.18 38.103 66.22 38.103 67.195 37.557 67.195 36.114L67.195 32.643C67.195 31.148 66.233 30.602 65.18 30.602 64.114 30.602 63.139 31.148 63.139 32.643L63.139 36.114zM72.486 39L71.719 39C71.615 39 71.563 38.948 71.563 38.857L71.563 30.992 69.964 32.058C69.886 32.11 69.808 32.097 69.756 32.019L69.392 31.421C69.34 31.356 69.366 31.265 69.431 31.213L71.628 29.757C71.693 29.718 71.745 29.705 71.823 29.705L72.486 29.705C72.59 29.705 72.642 29.757 72.642 29.848L72.642 38.857C72.642 38.948 72.59 39 72.486 39zM81.014 36.335C81.014 38.09 79.701 39.143 77.764 39.143 75.814 39.143 74.501 38.09 74.501 36.335 74.501 35.386 75.008 34.476 76.022 34.099 75.177 33.722 74.748 32.981 74.748 32.045 74.748 30.667 75.944 29.562 77.764 29.562 79.558 29.562 80.767 30.667 80.767 32.045 80.767 32.981 80.338 33.722 79.493 34.099 80.507 34.476 81.014 35.386 81.014 36.335zM75.593 36.322C75.593 37.375 76.399 38.129 77.764 38.129 79.116 38.129 79.922 37.375 79.922 36.322 79.922 35.321 79.09 34.658 77.764 34.658 76.425 34.658 75.593 35.321 75.593 36.322zM75.827 32.084C75.827 33.046 76.503 33.683 77.764 33.683 79.012 33.683 79.688 33.046 79.688 32.084 79.688 31.135 78.947 30.576 77.764 30.576 76.568 30.576 75.827 31.135 75.827 32.084z"/>
  </g>
</svg>
